<svg width="24" height="24" viewBox="0 0 24 24" fill="none" xmlns="http://www.w3.org/2000/svg">
<path d="M6.97502 20.6669H3.11702V9.05885H6.97502V20.6669ZM5.07202 3.46185C4.79711 3.43923 4.52049 3.47341 4.25936 3.56226C3.99823 3.65111 3.75817 3.79272 3.5541 3.97831C3.35004 4.16389 3.18633 4.38947 3.07316 4.64102C2.96 4.89257 2.89979 5.16471 2.89628 5.44052C2.89277 5.71633 2.94605 5.98991 3.05278 6.24426C3.15952 6.4986 3.31744 6.72827 3.51672 6.91898C3.716 7.10969 3.95239 7.25736 4.21118 7.35282C4.46997 7.44828 4.74563 7.48947 5.02102 7.47385H5.04702C5.32332 7.4969 5.6014 7.46259 5.86381 7.37308C6.12623 7.28358 6.36731 7.1408 6.57194 6.95371C6.77656 6.76662 6.94031 6.53925 7.0529 6.28588C7.1655 6.03251 7.22451 5.75861 7.22624 5.48135C7.22796 5.2041 7.17237 4.92948 7.06294 4.67472C6.95351 4.41997 6.79261 4.19058 6.59034 4.00096C6.38806 3.81133 6.14877 3.66556 5.8875 3.57279C5.62622 3.48002 5.34858 3.44225 5.07202 3.46185ZM9.11102 20.6669H12.969V14.1849C12.9541 13.8661 12.9971 13.5473 13.096 13.2439C13.2403 12.8332 13.508 12.4773 13.8625 12.2247C14.2169 11.9721 14.6408 11.8352 15.076 11.8329C16.476 11.8329 17.031 12.8969 17.031 14.4579V20.6669H20.889V14.0108C20.889 10.4458 18.989 8.78585 16.447 8.78585C15.7479 8.75662 15.0541 8.91958 14.4411 9.25703C13.8281 9.59447 13.3193 10.0935 12.97 10.6999V9.05885H9.11102C9.16202 10.1479 9.11102 20.6679 9.11102 20.6679V20.6669Z" fill="white"/>
</svg>
