<svg width="1440" height="1219" viewBox="0 0 1440 1219" fill="none" xmlns="http://www.w3.org/2000/svg">
<g opacity="0.1">
<path fill-rule="evenodd" clip-rule="evenodd" d="M433.155 318.274C433.032 290.572 384.165 259.421 363.291 243.361C322.017 211.595 279.09 182.261 236.56 152.459C194.031 122.657 151.387 92.9353 110.833 60.2166C84.5006 38.9777 53.5605 15.0566 35.7021 -15.2708C-2.3415 -79.9003 117.607 -70.3028 148.677 -71.7165C227.719 -75.3277 318.381 -73.6797 392.47 -107.336C436.699 -127.427 454.335 -161.124 444.836 -210.234C441.774 -226.205 432.711 -244.584 440.388 -260.144C448.587 -276.762 467.448 -286.351 483.101 -292.782C540.198 -316.21 605.844 -318.925 666.254 -321.865C731.396 -325.097 797.149 -324.151 861.831 -324.402C889.258 -324.507 917.901 -334.904 944.019 -343.355C978.258 -354.43 1012.09 -366.872 1046.05 -378.901C1120.75 -405.302 1197.72 -433.109 1276.76 -439.814C1326.25 -444.015 1380.35 -438.336 1418.8 -401.796C1438.1 -383.449 1448.21 -356.175 1459.37 -331.947C1472.88 -302.678 1485.85 -273.127 1500.24 -244.318C1546.57 -151.534 1612.72 -60.8669 1720.09 -56.3105C1736.34 -55.6238 1752.29 -57.8616 1768.46 -58.2817C1778.75 -58.5402 1787.91 -55.9146 1791.74 -44.5479C1801.36 -16.0381 1771.12 28.9682 1758.72 51.5885C1731.57 101.103 1700.95 148.396 1672.27 196.916C1653.29 229.005 1620.45 272.856 1620.1 311.844C1619.8 346.582 1663.58 371.691 1687.42 388.801C1709.75 404.821 1750.22 427.24 1752.67 459.829C1753.86 475.631 1743.98 488.727 1733.67 498.89C1715.6 516.663 1694.78 529.201 1678.52 549.478C1651.86 582.746 1629.59 628.52 1633.21 673.349C1635.72 704.412 1652.51 724.754 1673.88 744.199C1682.85 752.375 1690.14 758.159 1690.62 771.432C1691.38 792.51 1683.56 814.815 1677.11 834.357C1654.06 904.295 1621.31 971.921 1584.88 1035.06C1566.68 1066.62 1547.01 1098.08 1522.88 1125C1507.07 1142.67 1485.75 1163.71 1461.64 1163.69C1433.73 1163.69 1404.19 1153.05 1377.05 1145.1C1326.37 1130.25 1276.3 1113.07 1226.43 1095.45C1111.1 1054.69 996.854 1010.62 883.693 963.253C803.985 929.831 722.585 896.361 647.646 851.928C633.031 843.203 619.237 833.029 606.449 821.545C592.785 809.483 575.83 804.086 558.638 800.063C451.932 775.092 335.03 794.263 227.88 806.284C200.683 809.33 173.486 812.391 146.212 814.524C122.766 816.358 94.6966 821.617 71.9087 813.716C27.0064 798.165 66.2595 740.846 82.8548 717.491C141.283 635.258 216.666 565.684 286.538 494.656C319.759 460.831 353.233 427.094 384.647 391.354C401.005 372.773 433.262 342.559 433.155 318.274Z" stroke="#FF5D02"/>
<path fill-rule="evenodd" clip-rule="evenodd" d="M453.29 313.604C435.381 284.292 403.96 262.626 377.878 242.236C340.344 212.883 301.631 185.161 263.5 156.64C227.445 129.669 191.313 102.391 157.924 71.7624C137.564 53.0846 112.018 30.7488 102.374 3.12377C81.4549 -56.7533 193.994 -47.6688 221.777 -49.2353C290.846 -53.1114 369.153 -53.9997 433.052 -85.525C472.953 -105.212 489.345 -137.86 480.835 -183.185C477.893 -198.867 472.593 -212.256 479.303 -227.857C487.062 -245.913 504.91 -257.17 521.271 -265.116C572.524 -290.011 633.106 -295.3 688.663 -299.701C746.059 -304.248 805.86 -307.454 861.409 -304.127C883.623 -302.802 909.192 -310.32 931.175 -316.086C965.002 -324.969 998.483 -335.216 1032.14 -344.745C1100.54 -364.125 1170.72 -382.794 1241.88 -384.918C1293.26 -386.452 1346.82 -378.135 1389.57 -345.988C1432.88 -313.389 1452.1 -262.855 1476.12 -214.816C1517.61 -131.763 1573.64 -30.7837 1669.62 -13.2364C1684.17 -10.5716 1698.16 -12.017 1712.7 -11.3629C1720.18 -11.0319 1728.69 -9.98216 1732.48 -2.20582C1742.32 17.982 1715.35 54.8934 1706.27 70.3573C1681.19 113.091 1653 153.733 1626.72 195.643C1605.84 228.92 1579.39 265.896 1571.31 305.343C1561.52 353.213 1625.53 387.274 1648.04 420.979C1687.07 479.427 1613.13 512.729 1576.68 540.596C1534.81 572.59 1500.26 630.957 1537.79 680.457C1552.14 699.385 1569.8 710.666 1576.22 735.368C1586.24 773.999 1578.66 818.146 1570.52 856.333C1558.27 913.739 1538.87 970.524 1512.51 1022.41C1493.62 1059.55 1462.28 1117.8 1416.39 1113.43C1385.5 1110.51 1354.09 1099.86 1324.01 1090.45C1278.97 1076.36 1234.5 1060.29 1190.26 1043.61C1088.15 1005.21 987.162 962.86 888.158 916.283C820.605 884.491 632.171 754.571 617.993 749.935C575.718 736.127 527.652 738.558 484.067 740.698C426.089 743.54 368.402 750.904 310.762 757.728C283.324 760.958 255.748 764.907 228.165 766.498C208.533 767.628 182.749 768.597 165.553 756.557C131.987 733.067 169.383 679.318 184.848 656.579C232.225 586.866 292.156 526.497 348.349 464.771C375.925 434.465 403.922 404.207 428.954 371.471C439.05 358.252 464.358 331.709 453.29 313.604Z" stroke="#FF5D02"/>
<path fill-rule="evenodd" clip-rule="evenodd" d="M478.066 298.571C429.157 239.913 361.652 196.287 303.392 147.298C274.151 122.702 244.726 97.4362 219.505 68.1395C206.386 52.9056 190.004 33.6409 187.476 12.4055C180.721 -44.4028 282.154 -36.7211 312.513 -38.8778C371.21 -43.0619 437.52 -46.2362 490.771 -75.226C523.306 -92.9478 539.328 -122.034 533.247 -160.265C530.551 -177.227 526.354 -191.637 533.247 -208.293C540.232 -225.166 554.784 -237.073 569.519 -245.998C611.864 -271.668 664.488 -279.875 712.164 -285.989C768.092 -293.111 824.442 -295.892 880.756 -294.309C930.079 -292.944 979.164 -308.299 1027.32 -318.42C1091.12 -331.82 1156.07 -343.524 1221.36 -341.756C1272.92 -340.35 1324.88 -329.308 1368.96 -299.963C1413.75 -270.077 1440.67 -225.344 1464.95 -177.074C1501.65 -104.103 1547.39 -6.31779 1627.91 21.3957C1639.62 25.4344 1650.53 25.8787 1662.61 26.5814C1668.48 26.9206 1676.05 27.0257 1678.96 33.4795C1685.96 49.0204 1660.08 79.149 1652.86 89.6496C1629.81 123.171 1604.82 155.181 1581.19 188.258C1559.13 219.138 1535.11 251.318 1521.41 287.505C1499.6 345.137 1569.31 378.836 1567.36 433.754C1566.14 467.849 1535.19 492.299 1510.68 509.213C1480.51 530.013 1437.06 543.688 1421.96 581.643C1410.71 609.914 1428.36 626.368 1441.95 647.821C1464.99 684.169 1466.56 733.442 1464.16 775.517C1460.93 832.373 1448.3 890.07 1426.8 942.331C1417.06 966.022 1405.13 990.666 1387.56 1009.07C1371.1 1026.31 1355.52 1030.73 1333.53 1027.2C1266.19 1016.38 1198.21 986.207 1133.63 959.261C1052.5 925.401 972.493 888.018 894.872 845.96C841.942 817.277 787.817 786.93 741.359 747.302C729.251 736.971 716.851 725.744 707.997 712.117C701.304 701.875 698.462 693.418 687.181 687.57C653.743 670.244 607.231 674.775 571.403 676.577C514.115 679.444 457.103 687.077 400.168 693.951C366.944 697.99 304.357 710.696 277.827 680.22C254.927 653.904 282.56 609.034 296.675 585.852C332.38 527.226 378.31 475.773 420.923 422.793C440.453 398.513 460.749 374.046 476.878 347.052C480.999 340.17 487.601 331.05 488.734 322.69C490.006 313.11 484.07 305.8 478.066 298.571Z" stroke="#FF5D02"/>
<path fill-rule="evenodd" clip-rule="evenodd" d="M482.27 312.226C437.077 260.362 382.63 217.753 334.112 169.219C312.358 147.458 290.39 124.63 273.813 98.0834C264.897 83.8078 255.43 65.838 257.888 48.0945C264.943 -2.83226 348.367 1.76735 382.071 -1.21551C432.152 -5.59682 489.685 -10.0105 533.967 -37.4705C562.975 -55.4566 573.852 -82.0193 568.437 -116.278C562.623 -153.026 575.622 -179.702 605.205 -200.202C642.294 -225.883 689.111 -236.351 732.175 -243.788C784.059 -252.706 836.6 -256.658 889.158 -255.599C940.273 -254.564 989.794 -263.601 1040.57 -269.478C1107.89 -277.263 1177.38 -281.102 1243.94 -265.145C1301.9 -251.25 1354.25 -220.629 1393.49 -173.275C1434.48 -123.852 1454.77 -61.5838 1488.05 -6.90633C1508.81 27.1984 1537.75 72.3129 1576.54 85.57C1589.48 89.9918 1613.06 84.0261 1602.73 105.779C1596.82 118.22 1585.77 129.133 1577.03 139.302C1562.92 155.736 1548.35 171.717 1534 187.925C1503.42 222.474 1470.68 257.759 1447.76 298.67C1418.88 350.179 1461.81 389.821 1456.57 442.049C1453.76 470.156 1435.24 492.588 1415.65 510.21C1402.97 521.624 1389.1 531.51 1374.93 540.734C1360.14 550.369 1342.64 557.709 1329.74 570.166C1311.36 587.893 1319.34 608.878 1322.79 631.795C1328.85 672.07 1330.19 712.98 1326.75 753.599C1322.56 803.386 1312.71 854.596 1291.98 899.84C1283.91 917.454 1273.69 936.127 1258.52 947.937C1243.34 959.747 1227.65 958.939 1210.26 955.382C1158.69 944.874 1107.22 920.421 1058.3 897.245C997.063 868.233 937.032 835.81 879.706 798.924C840.134 773.461 800.433 745.952 767.327 711.427C757.698 701.379 748.537 690.62 741.13 678.608C736.044 670.37 733.317 659.741 725.948 653.548C702.892 634.221 656.603 639.992 629.563 641.116C575.599 643.355 522.485 654.001 468.59 656.588C439.176 658.003 393.109 661.559 371.508 635.134C351.194 610.293 369.593 571.168 381.734 547.233C405.595 500.17 437.651 458.24 466.384 414.492C478.195 396.49 491.141 377.655 498.793 357.098C505.595 338.781 493.852 325.524 482.27 312.226Z" stroke="#FF5D02"/>
<path fill-rule="evenodd" clip-rule="evenodd" d="M493.386 313.075C457.414 267.435 414.048 226.922 377.815 180.54C356.606 153.378 320.082 107.714 336.484 69.4207C354.478 27.3413 417.201 26.1951 453.457 22.8049C496.609 18.7689 547.284 13.2557 584.213 -13.0187C595.893 -21.3248 605.843 -32.319 610.06 -46.8002C614.576 -62.2985 609.639 -75.8594 608.996 -91.3738C607.649 -123.92 626.064 -150.049 650.434 -167.994C684.875 -193.364 727.943 -205.359 768.623 -213.722C814.711 -223.154 861.563 -227.804 908.51 -227.605C953.377 -227.444 997.768 -228.493 1042.68 -229.704C1101.42 -231.318 1160.98 -228.711 1217.95 -212.252C1274.08 -196.028 1325.1 -165.62 1365.19 -120.893C1404.29 -77.2478 1430.67 -23.8999 1453.78 30.4409C1466.89 61.2841 1489.04 107.375 1520.31 122.954C1534.22 129.888 1547.87 129.412 1533.08 147.445C1514.46 170.151 1489.36 188.37 1467.79 207.791C1436.68 235.817 1404.79 264.392 1378.67 297.714C1362 318.991 1354.56 339.64 1355.71 367.189C1356.6 388.177 1360.63 408.946 1358.59 430.014C1353.82 479.463 1316.91 513.374 1284.27 544.952C1263.28 565.261 1244.1 580.751 1233.3 609.641C1220.52 643.785 1215.15 680.933 1206.61 716.385C1197.23 755.316 1186.39 795.814 1165.91 830.104C1147.67 860.632 1125.5 874.322 1092.32 866.097C1040.55 853.278 989.533 821.701 943.58 792.488C896.808 762.767 850.839 729.349 812.081 688.496C791.155 666.435 776.873 640.532 758.29 616.833C734.916 587.079 682.036 598.348 650.61 600.866C598.442 605.048 434.292 636.335 449.438 534.999C455.76 492.701 480.658 453.665 498.866 416.34C506.413 400.85 517.335 382.26 519.042 364.51C520.902 345.177 504.201 326.813 493.386 313.075Z" stroke="#FF5D02"/>
<path fill-rule="evenodd" clip-rule="evenodd" d="M512.379 316.95C484.89 275.592 451.991 236.519 428.403 191.849C413.102 162.92 398.075 124.267 417.815 93.6586C440.094 59.1166 489.22 51.0646 525.317 46.663C562.508 42.1323 606.906 38.3203 637.302 12.1291C646.973 3.78637 654.945 -7.46387 656.429 -20.935C657.86 -33.857 653.821 -46.7789 655.16 -59.9351C658.159 -89.4779 675.136 -113.82 697.025 -131.474C761.774 -183.703 858.144 -195.317 936.267 -196.682C975.371 -197.36 1015.61 -193.799 1054.97 -191.246C1106.04 -187.935 1157.19 -180.828 1205.89 -163.699C1309.45 -127.291 1378.85 -46.5447 1427.33 53.9316C1442.59 85.5581 1454.26 119.777 1478.17 145.193C1490.5 158.317 1487.8 167.742 1475.2 179.711C1455.5 198.415 1431.47 212.71 1409.6 228.322C1378.5 250.523 1346.74 273.056 1319.23 299.651C1300.27 317.984 1286.81 335.647 1282.73 363.138C1279.81 382.739 1280.49 402.712 1278.74 422.434C1275.41 459.899 1263.98 497.082 1243.76 528.16C1227.7 552.792 1208.57 575.179 1188.8 596.525C1163.1 624.315 1141.36 652.55 1121.85 685.533C1095.97 729.193 1059.61 809.729 998.668 788.416C931.447 764.898 868.442 705.142 825.315 647.244C810.831 627.804 798.942 603.963 779.409 589.628C750.168 568.202 720.498 568.953 685.717 569.041C633.645 569.163 520.336 581.091 519.112 498.778C518.63 466.166 532.004 435.331 538.407 403.963C545.63 368.832 531.154 345.136 512.379 316.95Z" stroke="#FF5D02"/>
<path fill-rule="evenodd" clip-rule="evenodd" d="M532.854 320.638C505.663 266.734 444.69 178.16 491.065 118.219C515.561 86.5424 558.889 74.6382 595.235 67.5442C624.485 61.806 659.76 59.6512 681.86 35.3265C698.104 17.4421 690.893 -8.58551 697.117 -30.9733C704.841 -58.728 722.57 -81.4387 744.356 -98.5079C805.237 -146.213 889.887 -160.853 963.123 -163.968C1039.18 -167.197 1122.99 -152.097 1194.57 -123.051C1283.81 -86.8218 1350.67 -18.2218 1397.43 68.6499C1406.05 84.6861 1413.89 101.142 1422.18 117.372C1427.74 128.259 1435.99 138.791 1440.38 150.243C1447.68 169.338 1439.08 184.947 1425.28 197.392C1405.44 215.308 1381.07 228.06 1358.45 241.506C1327.51 259.906 1295.89 277.977 1267.11 299.565C1247.78 314.092 1227.54 329.741 1220.62 354.946C1215.89 372.136 1214.91 390.343 1215.08 408.147C1215.45 446.321 1213.55 477.191 1196.66 512.152C1168.88 569.55 1126.15 621.162 1081 664.105C1045.58 697.808 989.518 750.162 937.9 727.629C891.586 707.452 864.495 659.158 833.982 620.113C819.146 601.131 802.481 583.795 782.9 570.293C758.212 553.272 734.971 546.13 705.721 543.345C656.491 538.656 582.26 537.438 567.041 475.133C561.423 452.14 564.63 428.323 561.683 405.032C557.832 374.234 546.572 347.827 532.854 320.638Z" stroke="#FF5D02"/>
<path fill-rule="evenodd" clip-rule="evenodd" d="M561.127 322.634C541.765 263.653 516.329 189.321 563.094 136.901C585.746 111.507 617.608 97.311 648.446 86.7025C670.532 79.0997 705.6 76.8617 719.14 53.4875C729.085 36.2862 730.462 12.5565 739.459 -5.87296C751.822 -31.2104 770.549 -52.08 792.52 -68.4169C849.758 -110.988 924.308 -127.438 992.295 -132.148C1140.02 -142.369 1290.33 -60.9675 1369.38 72.9592C1392.95 112.88 1423.37 155.371 1385.28 196.156C1343.69 240.65 1281.05 261.496 1231.41 293.111C1212.45 305.182 1188.28 319.693 1177.7 341.548C1171.34 354.685 1170.9 371.167 1170.61 385.63C1169.85 422.465 1166.95 455.591 1152.91 489.961C1131.23 543.076 1096.66 592.079 1057.48 632.218C1023.32 667.219 974.592 708.352 924.974 683.119C886.93 663.728 862.802 622.571 833.242 592.232C800.346 558.444 759.663 535.675 714.986 524.55C671.526 513.755 623.858 506.476 600.954 460.616C593.097 444.885 584.889 424.517 581.943 407.105C577.189 378.398 570.227 350.147 561.127 322.634Z" stroke="#FF5D02"/>
<path fill-rule="evenodd" clip-rule="evenodd" d="M592.654 323.049C583.696 263.491 582.701 201.389 624.319 154.448C643.742 132.549 668.295 116.991 693.124 102.895C711.391 92.5235 730.256 83.7752 743.899 66.7713C756.539 51.0276 766.148 32.7474 778.351 16.5917C794.449 -4.81809 813.711 -23.3518 835.397 -38.2972C889.755 -75.6896 955.88 -93.1783 1019.14 -99.2447C1049.77 -102.193 1082.99 -103.728 1113.4 -95.6904C1142.78 -87.9357 1171.83 -75.6735 1198.84 -61.3757C1256.26 -31.0111 1306.02 13.4575 1342.1 69.6793C1366.83 108.243 1380.21 145.74 1348.18 184.861C1312.06 228.958 1255.44 253.289 1208.77 281.909C1176.76 301.538 1140.88 320.779 1134.9 362.493C1130.14 395.685 1126.27 427.189 1113.95 458.563C1095.62 504.841 1068.66 546.762 1034.68 581.839C1003.61 613.795 964.294 640.913 919.843 623.844C884.625 610.297 857.301 579.949 826.531 558.252C792.239 534.018 754.564 520.658 714.89 509.914C679.236 500.221 645.664 485.325 622.619 453.7C617.903 447.238 612.95 440.202 609.313 432.973C604.674 423.748 605.033 414.604 604.122 404.264C601.749 376.977 596.704 350.005 592.654 323.049Z" stroke="#FF5D02"/>
<path fill-rule="evenodd" clip-rule="evenodd" d="M627.413 318.181C628.179 261.61 641.073 208.146 676.389 164.059C691.488 145.199 709.517 129.664 726.131 112.382C739.507 98.4498 752.149 85.5044 767.531 74.0235C804.018 46.8382 833.671 11.6592 872.446 -12.5486C924.208 -44.912 983.499 -62.8009 1042.33 -69.9532C1071.06 -73.4484 1100.74 -74.6702 1129.8 -70.7218C1154.76 -67.3318 1178.67 -55.4301 1200.85 -43.2534C1244.31 -19.4016 1286.52 14.4991 1314.74 57.3887C1376.96 151.947 1254.28 220.694 1191.32 260.955C1162.36 279.475 1118.11 300.923 1106.25 337.607C1097.77 363.814 1092.61 390.465 1081.69 415.862C1052.36 484.068 992.812 564.289 913.464 553.609C879.51 549.046 848.563 530.509 816.866 518.066C784.228 505.25 750.542 498.106 716.619 490.266C684.914 482.943 659.646 472.522 639.168 444.585C629.38 431.243 630.245 415.271 629.373 398.904C627.949 372.018 627.069 344.978 627.413 318.181Z" stroke="#FF5D02"/>
<path fill-rule="evenodd" clip-rule="evenodd" d="M659.066 310.935C671.814 225.546 719.159 132.325 788.774 82.7355C870.663 24.4018 959.377 -24.7196 1057.22 -38.8408C1102.58 -45.3887 1152.27 -48.6102 1195.07 -27.1983C1227.64 -10.9133 1265.48 13.4294 1283.41 47.6626C1327.27 131.397 1229.71 198.054 1174.13 236.793C1144.21 257.648 1106.12 277.97 1083.56 308.424C1070.48 326.082 1063.8 349.439 1053.23 368.833C1021.22 427.602 968.517 475.004 902.87 483.482C872.517 487.397 841.942 482.553 811.819 478.702C780.983 474.762 749.765 472.622 719.121 467.124C694.659 462.732 665.831 455.296 656.821 427.675C645.46 392.869 653.864 345.806 659.066 310.935Z" stroke="#FF5D02"/>
<path fill-rule="evenodd" clip-rule="evenodd" d="M690.104 297.218C708.696 216.938 748.066 138.629 814.249 90.7034C849.347 65.2901 890.089 47.7472 929.206 30.4144C973.545 10.7706 1019.87 -4.47737 1067.19 -12.0408C1126.1 -21.4627 1221.51 -29.9554 1252.29 40.8707C1282.84 111.171 1205.64 173.392 1159.99 208.849C1130.72 231.564 1099.4 252.411 1071.44 277.243C1056.27 290.705 1044.59 306.26 1031.76 322.05C996.294 365.798 945.734 400.431 894.2 418.919C844.254 436.842 782.465 444.777 729.742 438.854C706.993 436.309 690.733 427.719 683.853 403.299C674.319 369.353 682.419 330.381 690.104 297.218Z" stroke="#FF5D02"/>
<path fill-rule="evenodd" clip-rule="evenodd" d="M720.946 275.596C739.415 204.912 779.253 140.352 837.361 97.9289C902.498 50.3719 986.371 23.9459 1063.46 10.5076C1104.44 3.37006 1193.24 -15.9826 1214.12 39.404C1235.01 94.7907 1174.63 149.373 1139.88 179.42C1097.7 215.832 1052.23 250.989 1006.81 283.659C967.344 312.064 925.235 341.106 882.491 363.041C858.384 375.485 833.271 385.646 807.451 393.402C788.331 399.099 764.018 407.597 743.974 403.356C693.414 392.646 712.113 309.393 720.946 275.596Z" stroke="#FF5D02"/>
<path fill-rule="evenodd" clip-rule="evenodd" d="M759.016 254.43C799.54 120.758 927.933 55.0162 1051.56 32.1014C1080.28 26.7823 1160.81 7.60455 1176.87 48.438C1192.43 88.0285 1142.94 134.98 1119.77 157.225C1047.98 226.155 959.29 277.264 875.244 327.896C849.011 343.7 801.697 377.995 769.155 362.175C733.822 344.967 750.621 282.147 759.016 254.43Z" stroke="#FF5D02"/>
<path fill-rule="evenodd" clip-rule="evenodd" d="M800.526 228.701C835.768 130.262 938.272 73.8037 1032.51 55.1915C1055.6 50.6373 1114.22 36.4581 1131.7 63.9283C1147.88 89.3395 1109.27 126.16 1094.83 140.792C1062.67 173.373 1024.56 200.214 986.908 226.012C952.096 249.881 916.907 274.348 880.277 294.534C860.983 305.161 824.798 327.835 802.873 311.427C779.269 293.775 792.701 250.559 800.526 228.701Z" stroke="#FF5D02"/>
<path fill-rule="evenodd" clip-rule="evenodd" d="M846.268 199.941C873.128 135.656 945.069 93.912 1008.53 80.0403C1025.6 76.3159 1062.51 66.6534 1076.92 83.8213C1090.18 99.6319 1068.8 122.811 1059.32 133.515C1017.28 180.963 955.713 223.346 899.306 249.376C885.124 255.92 859.629 268.766 845.04 255.557C830.075 241.992 840.098 214.701 846.268 199.941Z" stroke="#FF5D02"/>
<path fill-rule="evenodd" clip-rule="evenodd" d="M894.793 172.938C909.929 141.016 949.488 116.933 982.256 109.266C1005.32 103.876 1033.04 108.532 1012.94 136.319C992.975 163.893 955.928 189.078 924.528 200.243C900.572 208.757 881.795 200.357 894.793 172.938Z" stroke="#FF5D02"/>
<path fill-rule="evenodd" clip-rule="evenodd" d="M-332.61 394.028C-333.581 330.963 -365.341 265.421 -349.656 201.161C-336.776 148.385 -271.934 143.979 -233.035 120.069C-202.123 101.073 -184.581 67.4218 -167.864 35.1349C-152.844 6.14841 -139.352 -23.7095 -123.53 -52.2199C-113.287 -70.6511 -95.6988 -106.844 -73.486 -107.498C-52.221 -108.127 -32.7217 -79.9233 -20.3694 -63.2512C-4.26394 -41.5194 10.0147 -18.3513 25.6538 3.72751C52.0096 40.9693 83.6319 68.5355 119.84 94.625C161.046 124.311 202.931 152.982 245.497 180.64C276.836 201.065 308.39 221.336 338.514 243.778C357.409 257.859 399.114 284.28 399.305 310.24C399.397 322.627 388.275 336.346 380.776 346.247C368.088 363.008 353.626 378.332 339.118 393.326C312.097 421.255 283.93 447.918 256.068 474.903C219.905 509.925 185.363 544.375 153.572 584.135C120.704 625.29 89.3036 667.802 57.2609 709.732C35.5602 738.137 13.8824 770.037 -17.4189 787.468C-56.6238 809.256 -88.8042 786.281 -128.452 786.015C-162.559 785.781 -160.044 702.372 -164.378 679.18C-168.728 655.705 -178.313 633.852 -182.028 610.321C-186.66 580.947 -186.721 550.895 -187.86 521.207C-189.243 484.893 -189.794 450.322 -226.568 436.475C-247.497 428.607 -270.138 426.952 -291.8 422.24C-305.834 419.181 -332.304 413.952 -332.61 394.028Z" stroke="#FF5D02"/>
<path fill-rule="evenodd" clip-rule="evenodd" d="M-315.843 382.809C-319.418 329.945 -340.539 262.283 -320.566 207.714C-303.502 161.081 -250.137 155.036 -214.203 130.54C-184.538 110.335 -171.333 77.2716 -156.504 44.7903C-144.608 18.7341 -133.071 -7.57261 -119.567 -32.7963C-109.615 -51.3848 -94.419 -82.7669 -73.7266 -86.6139C-55.124 -90.073 -35.1742 -62.3682 -24.7323 -48.2733C-9.49809 -27.6966 3.53134 -5.35006 16.9895 16.5277C40.6369 54.9574 64.8508 89.5157 99.4607 117.746C134.224 146.097 172.256 167.296 210.693 189.36C240.763 206.623 270.681 224.387 299.25 244.317C320.532 259.156 351.131 278.148 360.868 304.608C368.577 325.541 329.481 360.277 317.953 372.537C294.221 397.745 269.073 421.409 243.879 444.927C213.166 473.586 181.473 498.648 154.35 531.339C105.838 589.788 65.2872 662.574 2.86533 706.014C-34.7838 732.216 -76.6816 738.916 -118.556 734.996C-135.138 733.444 -139.119 708.738 -141.209 694.328C-144.684 670.389 -145.121 646.038 -147.792 622.002C-150.296 599.502 -155.853 578.125 -160.332 556.062C-164.864 533.707 -166.135 510.803 -169.472 488.295C-171.539 474.321 -173.583 458.06 -182.624 446.826C-191.979 435.196 -207.412 430.323 -220.901 426.621C-246.233 419.736 -313.317 420.116 -315.843 382.809Z" stroke="#FF5D02"/>
<path fill-rule="evenodd" clip-rule="evenodd" d="M-294.262 360.68C-300.275 312.154 -308.692 251.716 -284.198 207.009C-264.177 170.453 -221.477 162.568 -190.978 138.749C-165.611 118.942 -156.029 87.4391 -143.438 58.1642C-133.106 34.1518 -122.72 10.0346 -110.197 -12.8155C-100.7 -30.1447 -88.4601 -53.6406 -69.6032 -59.6861C-53.4806 -64.8518 -35.2671 -41.711 -26.3289 -30.1932C-11.1101 -10.5636 1.29782 11.4309 13.6215 33.1348C33.7804 68.6489 52.331 106.584 81.0223 135.472C108.902 163.504 142.02 180.05 175.759 198.655C201.601 212.909 227.282 227.712 251.631 244.71C270.327 257.753 293.496 273.21 303.238 294.914C311.663 313.632 290.034 335.787 279.227 348.992C261.381 370.785 241.574 390.778 222.043 410.851C200.965 432.507 177.62 452.483 157.224 474.672C114.332 521.365 80.0649 573.062 27.2012 608.834C-7.03536 632.007 -53.1053 653.057 -93.5765 649.272C-122.681 646.544 -120.767 578.567 -123.562 556.846C-128.158 521.332 -137.035 484.018 -151.135 451.305C-163.244 423.273 -192.02 414.629 -218.49 408.341C-235.072 404.394 -252.451 402.263 -268.489 396.161C-287.055 389.091 -291.743 381.019 -294.262 360.68Z" stroke="#FF5D02"/>
<path fill-rule="evenodd" clip-rule="evenodd" d="M-274.133 337.934C-277.712 296.909 -276.907 248.395 -253.719 212.907C-233.397 181.822 -197.215 173.638 -171.481 149.15C-151.397 130.046 -143.509 98.8963 -132.708 73.6317C-119.508 42.7411 -101.011 -14.3127 -67.711 -25.9371C-36.734 -36.744 -4.33882 32.2904 6.87608 52.876C24.6298 85.4585 39.4782 121.19 61.0111 151.279C79.5544 177.183 104.399 191.503 130.769 206.892C164.39 226.547 215.436 249.852 233.412 288.158C246.812 316.701 203.24 359.135 188.361 378.911C172.8 399.57 161.079 424.057 145.019 443.987C119.677 475.436 78.6115 500.757 44.7062 520.08C11.7438 538.877 -31.0614 559.681 -68.4546 558.443C-93.0308 557.633 -97.7068 517.579 -102.95 498.013C-110.463 470.199 -120.451 445.274 -141.907 426.356C-163.747 407.098 -189.488 398.024 -216.548 390.082C-230.438 386.035 -246.283 382.878 -258.709 374.702C-272.438 365.805 -272.753 353.703 -274.133 337.934Z" stroke="#FF5D02"/>
<path fill-rule="evenodd" clip-rule="evenodd" d="M-249.606 314.287C-249.407 278.844 -241.728 241.049 -218.958 213.709C-199.994 190.937 -170.309 183.325 -152.155 160.045C-137.775 141.615 -130.455 115.741 -120.827 94.3387C-109.053 68.1108 -92.4034 22.2926 -63.1237 13.1902C-34.547 4.32945 -9.27114 54.7956 1.6858 74.7645C17.7315 104.045 30.7209 135.082 46.9119 164.282C59.5956 187.191 75.1065 201.957 95.7597 216.722C120.004 234.065 153.83 253.277 166.781 281.969C176.118 302.744 153.517 335.94 145.31 354.241C139.809 366.533 134.774 379.019 132.008 392.342C129.853 402.718 129.639 412.319 123.397 421.228C107.679 443.638 73.2192 446.562 49.8383 453.949C18.786 463.752 -14.1613 474.893 -46.6577 477.019C-66.6309 478.348 -76.8237 458.927 -88.2238 445.265C-101.695 429.115 -120.766 417.499 -137.423 405.311C-159.406 389.201 -183.329 379.18 -208.078 368.918C-219.241 364.286 -232.353 359.743 -241.002 350.536C-250.034 340.99 -249.675 327.079 -249.606 314.287Z" stroke="#FF5D02"/>
<path fill-rule="evenodd" clip-rule="evenodd" d="M-223.846 293.246C-219.899 263.479 -207.6 235.028 -186.826 213.985C-170.902 197.829 -149.753 188.733 -136.973 169.322C-125.064 151.227 -116.765 130.653 -106.929 111.306C-96.5191 90.8524 -81.0535 56.6664 -57.0445 51.1006C-31.1692 45.1068 -11.2369 79.5917 -0.199956 98.7042C13.7435 122.857 24.3368 148.844 36.8041 173.829C46.1963 192.452 58.177 209.484 72.3472 224.357C87.2085 240.037 107.363 255.054 114.881 276.614C121.528 295.71 109.091 318.813 106.896 338.176C104.548 358.864 108.663 380.594 95.6449 398.357C68.7983 434.991 1.42156 428.197 -37.0969 428.981C-75.1029 429.789 -105.659 407.372 -136.414 386.046C-156.729 371.966 -177.885 360.043 -198.712 346.925C-219.945 333.539 -227.318 319.443 -223.846 293.246Z" stroke="#FF5D02"/>
<path fill-rule="evenodd" clip-rule="evenodd" d="M-199.912 276.209C-188.241 233.084 -151.788 210.164 -125.729 177.574C-104.407 150.894 -88.4193 95.6425 -52.5102 88.3339C-11.7414 80.0388 12.6649 153.247 26.8387 181.495C42.5661 212.824 70.577 238.307 82.2253 271.471C88.3479 288.877 83.0901 305.12 79.8298 322.518C76.2557 341.623 73.5694 361.156 61.2324 376.533C36.9486 406.794 -10.4786 406.584 -44.635 407.417C-79.993 408.282 -111.272 387.544 -139.444 366.847C-169.322 344.929 -211.866 320.432 -199.912 276.209Z" stroke="#FF5D02"/>
<path fill-rule="evenodd" clip-rule="evenodd" d="M-180.364 264.515C-167.213 233.79 -139.576 208.812 -117.151 185.231C-98.4343 165.573 -78.2988 126 -49.7607 123.179C-16.2195 119.852 4.10871 162.11 17.3062 188.02C30.2956 213.481 49.0127 240.364 56.205 268.308C63.7057 297.417 43.7321 336.621 24.6836 357.22C3.43804 380.189 -31.3211 388.676 -61.1466 387.759C-92.3751 386.827 -121.029 367.844 -144.68 348.154C-169.965 327.106 -195.658 300.182 -180.364 264.515Z" stroke="#FF5D02"/>
<path fill-rule="evenodd" clip-rule="evenodd" d="M-162.225 258.73C-149.663 233.176 -127.887 211.558 -107.81 192.275C-92.3151 177.388 -69.4516 152.075 -47.0973 151.455C-22.5053 150.771 -1.66348 172.018 8.11313 193.797C17.7508 215.278 27.9055 242.209 29.3485 265.775C32.4813 317.094 -31.302 374.58 -79.1973 369.903C-124.608 365.466 -187.272 309.647 -162.225 258.73Z" stroke="#FF5D02"/>
<path fill-rule="evenodd" clip-rule="evenodd" d="M-145.45 255.912C-128.12 222.617 -86.0245 175.149 -47.0526 174.022C-2.31936 172.733 8.91021 225.556 3.07947 263.836C-2.84383 302.905 -54.4181 359.456 -95.5419 351.814C-135.678 344.358 -165.989 295.4 -145.45 255.912Z" stroke="#FF5D02"/>
<path fill-rule="evenodd" clip-rule="evenodd" d="M1212.66 1383.9C1150.32 1423.81 1079.84 1456.75 1013.38 1490.23C916.26 1539.16 817.707 1586.77 715.657 1623.22C660.944 1642.76 590.046 1670.92 531.339 1655.62C509.874 1650.02 490.3 1633.1 471.055 1622.11C444.517 1606.95 417.589 1592.54 390.706 1578.1C336.781 1549.15 282.688 1520.49 229.689 1489.69C204.168 1474.85 179.406 1456.16 152.837 1443.5C137.311 1436.1 118.732 1439.56 102.142 1440.03C63.7122 1441.12 25.3058 1443.19 -13.1007 1444.95C-60.0776 1447.09 -107.162 1449.38 -154.192 1448.53C-175.404 1448.14 -227.355 1452.12 -239.032 1432.84C-245.315 1422.46 -230.508 1403.74 -223.644 1395.08C-211.04 1379.16 -196.555 1364.81 -182.26 1350.61C-149.203 1317.77 -114.095 1286.5 -84.71 1249.82C-69.6122 1230.96 -49.8312 1207.92 -59.6873 1182.18C-69.6352 1156.18 -86.868 1133.66 -97.3821 1107.75C-109.488 1077.93 -114.508 1046.9 -120.224 1015.28C-124.456 991.909 -134.312 971.203 -143.579 949.658C-153.817 925.844 -164.423 901.828 -171.532 876.714C-176.231 860.125 -183.814 830.281 -167.377 819.779C-144.022 804.845 -100.229 816.937 -73.6067 821.337C-36.8149 827.407 -0.290913 835.141 36.4014 841.801C63.0388 846.644 89.768 851.956 116.849 852.521C160.505 853.433 204.306 850.277 247.847 847.338C328.471 841.897 408.517 834.519 489.412 834.519C560.285 834.519 724.067 921.032 762.405 936.265C838.927 966.674 917.484 995.501 989.897 1035.96C1009.49 1046.92 1039.64 1061.51 1049.94 1084.06C1056.3 1097.95 1053.38 1105.98 1068.38 1114.93C1088.84 1127.15 1115.06 1131.94 1137.71 1137.41C1174.19 1146.21 1210.95 1153.66 1247.59 1161.63C1321.71 1177.7 1395.33 1195.88 1469.14 1213.37C1491.45 1218.66 1518.45 1219.83 1539.72 1229.14C1553.44 1235.13 1552.01 1242.66 1541.4 1251.75C1522.78 1267.7 1496.69 1276.55 1474.7 1285.65C1442.47 1298.98 1409.72 1310.87 1376.95 1322.59C1344.19 1334.31 1311.25 1345.67 1278.47 1357.42C1256.81 1365.15 1232.12 1371.44 1212.66 1383.9Z" stroke="#FF5D02"/>
<path fill-rule="evenodd" clip-rule="evenodd" d="M1161.36 1375.12C1095.41 1415.11 1022.21 1446.97 951.643 1478.05C861.327 1517.86 768.968 1555.16 673.808 1580.05C617.935 1594.65 552.012 1610.77 494.922 1594.02C474.555 1588.05 459.339 1574.62 441.881 1562.77C421.981 1549.25 401.315 1536.85 380.65 1524.66C338.11 1499.55 295.121 1475.29 251.682 1451.9C228.675 1439.46 203.348 1422.8 177.356 1418.48C156.691 1415.04 133.216 1420.02 112.459 1421.46C75.0774 1424.07 37.7037 1426.75 0.306962 1429.03C-42.8455 1431.66 -86.1203 1434.08 -129.365 1433.66C-153.467 1433.43 -194.843 1437.3 -211.889 1420.86C-226.76 1406.52 -172.617 1354.66 -163.095 1344.8C-133.36 1314.03 -102.086 1284.74 -74.41 1251.83C-58.0537 1232.43 -38.1383 1208.84 -31.2422 1183.12C-25.3717 1161.2 -36.6994 1136.23 -43.3889 1115.97C-51.7545 1090.6 -58.5052 1064.29 -68.2256 1039.45C-76.8821 1017.32 -90.6592 997.598 -102.76 977.477C-116.07 955.343 -129.548 932.845 -139.43 908.698C-145.484 893.839 -155.503 868.956 -143.471 854.793C-129.571 838.463 -86.725 849.134 -69.1135 851.463C-33.3853 856.248 2.06735 863.362 37.5506 869.733C96.4853 880.307 152.672 889.555 212.686 887.34C290.84 884.446 368.917 877.639 447.055 873.872C475.91 872.465 505.224 869.635 534.102 871.163C550.657 872.045 563.263 877.38 572.892 889.417C586.041 905.844 616.327 914.939 637.391 924.365C670.233 939.053 703.489 952.715 736.654 966.555C809.457 996.952 883.661 1026.25 952.707 1065.56C974.551 1077.99 999.563 1091.86 1015.72 1112.4C1024.74 1123.86 1022.46 1134.89 1027.97 1147.06C1035.25 1163.08 1059.21 1170.31 1073.53 1175.54C1101.17 1185.67 1129.94 1192.45 1158.49 1198.8C1223.09 1213.18 1287.84 1222.63 1353.49 1229.59C1368.87 1231.2 1429.45 1236.81 1397.63 1263.81C1362.48 1293.64 1311.72 1308.27 1270.33 1325.08C1233.05 1340.2 1195.74 1354.27 1161.36 1375.12Z" stroke="#FF5D02"/>
<path fill-rule="evenodd" clip-rule="evenodd" d="M1070.22 1367.72C1008.24 1402.9 939.569 1429.15 872.809 1454.26C791.798 1484.73 708.756 1511.89 623.791 1527.11C570.417 1536.65 511.572 1543.99 458.558 1528.12C422.354 1517.29 394.349 1488.01 362.552 1467.86C330.754 1447.72 297.669 1428.8 263.596 1413.04C242.449 1403.26 219.7 1393.4 196.169 1394.69C138.957 1397.83 81.8126 1405.29 24.5385 1408.92C-13.3505 1411.34 -51.3161 1413.33 -89.3201 1412.73C-112.237 1412.38 -143.721 1413.83 -164.01 1401.11C-186.437 1387.04 -67.0235 1266.92 -55.7372 1253.41C-27.4411 1219.51 6.8238 1174.52 1.35307 1126.3C-3.88014 1080.22 -26.56 1045.81 -52.2127 1009.7C-66.7707 989.156 -113.456 934.278 -96.1547 907.562C-86.2706 892.291 -53.6914 897.578 -38.214 898.619C-7.71122 900.669 22.623 905.076 52.9649 908.902C97.2058 914.447 142.665 923.011 187.098 925.521C218.037 927.264 249.16 924.932 280.154 924.883C324.594 924.819 369.034 925.174 413.474 925.594C450.788 925.949 488.417 925.594 525.601 929.371C548.718 931.696 566.264 936.918 582.845 951.672C597.272 964.506 619.04 972.02 637.429 980.18C667.802 993.652 698.573 1006.14 729.244 1018.83C793.46 1045.4 858.412 1071.41 919.877 1104.62C947.936 1119.77 995.111 1140.98 1001.69 1177.71C1004.07 1190.96 1005.82 1196.68 1018.07 1204.21C1035.48 1214.9 1056.32 1219.72 1075.84 1223.9C1121.35 1233.67 1168.18 1232.21 1213.62 1241.86C1232.12 1245.84 1256.28 1254.43 1235.16 1274.09C1210.51 1297.09 1174.63 1309.73 1145.1 1323.93C1130.35 1331.02 1115.17 1337.65 1101.17 1346.31C1090.42 1352.97 1081.22 1361.52 1070.22 1367.72Z" stroke="#FF5D02"/>
<path fill-rule="evenodd" clip-rule="evenodd" d="M952.819 1356.74C895.551 1385.31 833.357 1406.09 772.279 1424.82C704.439 1445.6 634.962 1462.8 564.567 1470.13C515.959 1475.2 464.168 1476.7 416.991 1461.17C387.156 1451.35 366.929 1430.69 341.256 1413.37C302.508 1387.19 260.586 1366.44 214.036 1371.49C161.848 1377.14 109.489 1381.38 56.959 1384.2C25.2727 1385.91 -6.53591 1387.19 -38.2604 1386C-58.3187 1385.26 -84.1603 1384 -101.61 1374.41C-124.958 1361.57 -37.2583 1263.87 -26.3265 1249.63C0.785101 1214.32 20.6598 1177.26 32.2725 1133.51C41.7432 1097.8 22.3964 1069.74 2.43754 1043.03C-9.97074 1026.44 -50.0643 984.727 -37.5107 963.189C-30.6257 951.312 -7.93581 951.927 4.25063 951.32C27.476 950.171 50.8008 951.369 74.0262 951.895C108.321 952.704 144.827 947.145 178.831 951.62C254.191 961.523 329.36 970.099 405.187 976.887C446.986 980.625 489.038 984.023 530.463 991.231C545.334 993.82 560.696 996.563 574.787 1002.42C583.852 1006.18 588.794 1012.59 596.444 1017.85C632.919 1042.88 680.533 1055.76 721.613 1071.81C776.226 1093.13 831.131 1114.13 884.29 1139.32C912.251 1152.58 951.304 1167.8 970.544 1194.85C976.358 1203.02 973.879 1209.56 977.536 1217.41C981.744 1226.48 994.527 1229.18 1002.78 1231.7C1021.52 1237.44 1099.94 1246.11 1063.8 1279.76C1046.55 1295.79 1024.58 1306.07 1005.14 1318.67C998.107 1323.23 991.245 1327.82 985.377 1333.98C975.562 1344.3 965.893 1350.19 952.819 1356.74Z" stroke="#FF5D02"/>
<path fill-rule="evenodd" clip-rule="evenodd" d="M827.725 1344.36C714.671 1390.6 582.177 1422.09 458.919 1415.99C417.931 1413.95 373.83 1407.16 338.299 1383.9C317.348 1370.15 300.607 1354.64 275.44 1349.68C257.272 1346.1 237.709 1350.17 219.434 1351.64C192.964 1353.77 166.479 1355.68 139.971 1357.22C107.108 1359.11 74.1377 1360.56 41.2134 1359.78C17.6873 1359.23 -14.8001 1359.86 -35.237 1346.52C-59.637 1330.61 2.47084 1256 11.2098 1242.7C32.3902 1210.47 47.2387 1179.25 52.6048 1140.41C54.1839 1129.1 59.5039 1117.5 58.814 1106.1C58.0934 1094.45 51.2938 1084.08 45.0156 1074.92C36.8056 1062.92 8.31974 1034.45 16.4761 1019.81C20.9835 1011.73 37.9018 1010.71 46.6714 1009C63.122 1005.77 79.8104 1004.03 96.3607 1001.46C124.44 997.077 152.321 982.812 180.5 983.216C256.276 984.283 333.148 1009.08 407.405 1022.7C451.552 1030.82 495.998 1038.19 539.609 1049.19C553.407 1052.68 567.619 1056.28 580.735 1062.19C589.888 1066.31 595.768 1073.66 604.246 1078.28C636.757 1096 674.142 1106.76 709.052 1118.69C754.372 1134.21 799.845 1149.26 844.851 1165.78C873.06 1176.13 909.335 1185.24 933.643 1204.45C951.397 1218.47 939.262 1222.66 929.894 1235.72C925.111 1242.38 926.215 1248.95 924.137 1256.49C921.171 1267.26 912.784 1275.01 904.919 1281.97C894.072 1291.6 879.622 1299.53 870.753 1311.33C867.626 1315.48 867.771 1320.64 865.241 1324.26C857.882 1334.81 838.358 1340.01 827.725 1344.36Z" stroke="#FF5D02"/>
<path fill-rule="evenodd" clip-rule="evenodd" d="M707.525 1327.89C615.769 1356.96 513.675 1373.51 416.685 1365.83C382.939 1363.15 348.987 1356.93 317.552 1343.28C303.25 1337.09 292.515 1330.18 276.843 1329.81C240.48 1328.95 204.003 1331.95 167.648 1332.67C141.631 1333.19 115.483 1333.37 89.5276 1331.17C72.1727 1329.7 48.7037 1327.93 34.4861 1316.7C13.8255 1300.35 51.1218 1244.74 58.7127 1229.38C71.2927 1203.9 83.7733 1175.58 78.7841 1146.1C77.2537 1137.09 74.5448 1129.12 74.1928 1119.93C73.8561 1112.03 74.7973 1104.74 72.1421 1097.18C68.8593 1087.82 54.2592 1073.29 59.279 1064.67C62.6995 1058.79 72.8461 1058.51 79.5952 1056.63C90.5418 1053.57 101.23 1049.57 111.55 1044.65C122.416 1039.44 131.668 1031.39 142.924 1027.09C161.197 1020.12 181.651 1019.47 200.858 1019.5C277.493 1019.63 355.101 1035.58 429.793 1052.26C468.689 1060.95 507.798 1070.2 545.6 1083.37C557.078 1087.38 570.086 1091.4 580.179 1098.79C586.477 1103.39 590.747 1109.15 597.902 1112.61C659.019 1142.16 729.678 1153.13 794.56 1174.46C811.448 1180.02 905.041 1208.08 856.106 1234.48C826.378 1250.52 794.966 1257.82 767.839 1279.76C759.575 1286.43 754.065 1291.95 750.836 1302.13C748.709 1308.91 753.828 1305.47 746.681 1312.55C738.011 1321.07 718.215 1324.5 707.525 1327.89Z" stroke="#FF5D02"/>
<path fill-rule="evenodd" clip-rule="evenodd" d="M612.12 1310.7C504.694 1334.43 390.93 1335.56 281.809 1314.53C254.3 1309.23 225.671 1310.49 197.825 1309.15C170.769 1307.86 122.665 1310.54 103.014 1288.59C88.765 1272.68 104.227 1238.86 109.575 1221.06C116.389 1198.38 122.343 1174.95 111.156 1152.93C104.603 1140.03 95.6249 1127.75 88.5962 1114.98C85.2353 1108.87 78.314 1099.52 81.1991 1093.74C85.9719 1084.2 108.301 1080.19 119.136 1075.69C153.765 1061.32 190.436 1057.65 227.459 1057.75C295.843 1057.94 364.58 1067.81 431.66 1081.19C462.522 1087.35 493.814 1093.92 523.578 1104.63C540.421 1110.68 552.844 1122.36 568.927 1129.29C620.714 1151.6 676.353 1163.52 729.03 1183.93C744.277 1189.84 801.228 1209.51 772.537 1232.7C744.76 1255.15 704.245 1252.48 675.363 1273.6C672.094 1276.02 668.05 1278.92 666.155 1282.83C665.035 1285.17 667.007 1289.62 666.155 1290.95C657.285 1305.4 625.755 1307.7 612.12 1310.7Z" stroke="#FF5D02"/>
<path fill-rule="evenodd" clip-rule="evenodd" d="M542.521 1295.02C487.408 1303 431.084 1304.98 375.044 1305.48C344.411 1305.76 310.756 1307.81 280.784 1299.63C262.372 1294.59 244.589 1290.18 225.61 1287C205.188 1283.58 172.308 1281.09 159.873 1262.55C150.583 1248.7 156.95 1220.23 157.287 1203.38C157.648 1184.91 154.058 1171.21 141.699 1157.99C133.928 1149.67 98.278 1119.45 102.398 1110.74C106.318 1102.44 131.158 1101.17 141.898 1099.01C175.845 1092.17 210.244 1089.79 244.773 1090.16C298.252 1090.73 351.929 1096.48 404.571 1106.37C426.335 1110.48 448.828 1114.73 469.618 1122.94C483.619 1128.48 495.295 1138.3 509.203 1144.02C549.034 1160.43 591.15 1171.58 631.119 1188.29C643.946 1193.67 685.74 1207.97 675.721 1230.02C667.367 1248.43 638.952 1254.03 624.989 1266.36C601.238 1287.4 572.808 1290.65 542.521 1295.02Z" stroke="#FF5D02"/>
<path fill-rule="evenodd" clip-rule="evenodd" d="M507.801 1284.45C464.083 1289.73 419.348 1292.03 374.988 1292.15C346.359 1292.22 316.156 1292.63 288.062 1285.84C273.951 1282.44 261.688 1274.47 248.332 1268.78C234.58 1262.94 215.601 1256.41 209.656 1243.01C204.071 1230.42 206.157 1212.04 201.252 1196.85C196.889 1183.38 187.759 1175.05 177.926 1165.95C171.661 1160.13 139.487 1134.93 143.208 1129.37C147.196 1123.41 166.519 1123.89 176.573 1123.07C204.276 1120.76 232.077 1120.02 259.854 1120.86C297.766 1122.09 335.968 1125.51 373.223 1133.26C399.651 1138.75 419.585 1151.83 444.225 1161.43C476.147 1173.88 509.215 1183.73 540.831 1197.36C556.585 1204.15 579.904 1212.89 587.972 1230.42C591.074 1237.13 594.084 1254.22 590.631 1260.93C586.482 1269.01 571.041 1272.43 563.752 1274.51C545.491 1279.68 526.383 1282.2 507.801 1284.45Z" stroke="#FF5D02"/>
</g>
</svg>
